<svg width="35" height="39" viewBox="0 0 35 39" fill="none" xmlns="http://www.w3.org/2000/svg">
<path d="M19.3467 21.5349C20.7358 21.5349 22.0693 22.0636 23.0528 23.0066C24.0364 23.9498 24.5899 25.2304 24.5899 26.5662V30.1882H22.92V26.5662C22.92 25.6599 22.5448 24.7894 21.8751 24.1472C21.2052 23.5051 20.2956 23.1443 19.3467 23.1443H14.9385C13.9896 23.1444 13.08 23.505 12.4102 24.1472C11.7405 24.7894 11.3653 25.6599 11.3653 26.5662V30.1882H9.69635V26.5662C9.69638 25.2304 10.2498 23.9498 11.2335 23.0066C12.2169 22.0638 13.5497 21.535 14.9385 21.5349H19.3467ZM17.0733 10.2634C18.4625 10.2634 19.7958 10.792 20.7794 11.7351C21.763 12.6783 22.3165 13.9589 22.3165 15.2947C22.3164 16.2907 22.0083 17.2641 21.4317 18.0916C20.8551 18.919 20.0357 19.5628 19.0782 19.9431C18.1209 20.3233 17.0679 20.423 16.0518 20.2292C15.0356 20.0354 14.1007 19.5566 13.3672 18.8533C12.634 18.15 12.1343 17.2536 11.9317 16.2771C11.7291 15.3003 11.8332 14.2878 12.2305 13.3679C12.6278 12.4481 13.3001 11.6625 14.1622 11.1101C15.0242 10.5578 16.0373 10.2635 17.0733 10.2634ZM17.0733 11.8718C16.1243 11.8719 15.2148 12.2334 14.545 12.8757C13.8753 13.5179 13.5001 14.3884 13.5001 15.2947C13.5001 15.9704 13.7087 16.6315 14.1006 17.1941C14.4927 17.7568 15.0509 18.1962 15.7042 18.4558C16.3576 18.7154 17.0776 18.7835 17.7715 18.6511C18.4655 18.5187 19.1022 18.1916 19.6016 17.7126C20.1009 17.2338 20.4406 16.6246 20.5782 15.9617C20.7157 15.2986 20.645 14.6109 20.3751 13.9861C20.1051 13.3613 19.6482 12.8265 19.0606 12.45C18.4728 12.0734 17.781 11.8718 17.0733 11.8718Z" fill="#0974FB" stroke="#0974FB" stroke-width="0.2"/>
<path d="M20.9169 8.01267L14.2873 4.25917L20.9169 0.5V8.01267Z" fill="#0974FB"/>
<path d="M21.6991 37.7L20.9716 34.963C27.2018 33.1856 31.5505 27.2516 31.5505 20.5396C31.5505 12.2944 25.085 5.58236 17.1426 5.58236V2.7431C26.5947 2.7431 34.2854 10.7271 34.2854 20.5396C34.2854 28.5292 29.1109 35.5876 21.6991 37.7Z" fill="#0974FB"/>
<path d="M19.9543 38.0974L19.5057 35.2979C19.998 35.2127 20.4903 35.0991 20.9717 34.9629L21.6992 37.6999C21.1303 37.8646 20.545 37.9952 19.9597 38.0974H19.9543Z" fill="#0974FB"/>
<path d="M16.1801 38.3074C14.9166 38.2336 13.664 38.0178 12.4496 37.6601L13.199 34.9287C14.2164 35.2297 15.2721 35.4114 16.3333 35.4738L16.1801 38.3074ZM8.94885 36.1723C7.84392 35.5477 6.79916 34.7867 5.84739 33.9236L7.65247 31.7885C8.45109 32.5153 9.32628 33.1513 10.2616 33.6794L8.95432 36.1723H8.94885ZM3.29292 31.0332C2.549 29.9714 1.91449 28.83 1.41125 27.6261L3.92196 26.4961C4.34315 27.5012 4.87373 28.4666 5.50278 29.3581L3.29292 31.0332ZM0.300848 23.8726C0.0984593 22.7824 0 21.658 0 20.5393C0 20.3463 0 20.1532 0.0109399 19.9601L2.74592 20.051C2.74592 20.21 2.74045 20.3747 2.74045 20.5393C2.74045 21.482 2.8225 22.4246 2.99207 23.3445L0.306318 23.8726H0.300848ZM3.19446 16.7858L0.546996 16.076C0.864254 14.8097 1.31826 13.5718 1.89261 12.4077L4.32674 13.7081C3.83991 14.6905 3.46248 15.724 3.19446 16.7915V16.7858ZM6.08259 10.954L3.98213 9.13121C4.79168 8.12612 5.71064 7.21188 6.71164 6.41689L8.37451 8.67125C7.53213 9.34132 6.76087 10.1136 6.07712 10.9597L6.08259 10.954Z" fill="#0974FB"/>
<path d="M11.1149 6.95075L9.97168 4.37271C10.5077 4.11717 11.0657 3.88436 11.6291 3.68561L12.5097 6.37154C12.0393 6.53622 11.5689 6.72929 11.1204 6.95075H11.1149Z" fill="#0974FB"/>
</svg>
